<svg width="114" height="80" viewBox="0 0 114 80" fill="none" xmlns="http://www.w3.org/2000/svg">
<g opacity="0.3">
<path d="M79.9977 49.7907C78.4025 48.8733 75.8163 48.8733 74.2212 49.7907L61.0082 57.3901C59.4131 58.3075 59.4131 59.795 61.0082 60.7124L74.2212 68.3118C75.8163 69.2292 78.4025 69.2292 79.9976 68.3118L93.2107 60.7124C94.8058 59.795 94.8058 58.3075 93.2107 57.3901L79.9977 49.7907Z" fill="#333333"/>
<path d="M52.6318 37.5499C54.2269 36.6325 56.8131 36.6325 58.4082 37.5499L71.6213 45.1493C73.2164 46.0667 73.2164 47.5542 71.6213 48.4716L58.4082 56.071C56.8131 56.9884 54.2269 56.9884 52.6318 56.071L39.4188 48.4716C37.8237 47.5542 37.8237 46.0667 39.4188 45.1493L52.6318 37.5499Z" fill="#333333"/>
<path d="M31.2179 49.7907C32.8131 48.8733 35.3993 48.8733 36.9944 49.7907L50.2074 57.3901C51.8025 58.3075 51.8025 59.795 50.2074 60.7124L36.9944 68.3118C35.3993 69.2292 32.8131 69.2292 31.2179 68.3118L18.0049 60.7124C16.4098 59.795 16.4098 58.3075 18.0049 57.3901L31.2179 49.7907Z" fill="#333333"/>
</g>
<path d="M85.8242 33.7459C83.815 32.5903 80.5575 32.5903 78.5483 33.7459L61.9054 43.318C59.8963 44.4736 59.8963 46.3471 61.9054 47.5027L78.5483 57.0747C80.5575 58.2303 83.815 58.2303 85.8242 57.0747L102.467 47.5027C104.476 46.3471 104.476 44.4736 102.467 43.318L85.8242 33.7459Z" fill="#333333"/>
<path d="M51.3547 18.3276C53.3639 17.172 56.6214 17.172 58.6306 18.3276L75.2734 27.8997C77.2826 29.0553 77.2826 30.9288 75.2734 32.0844L58.6306 41.6565C56.6214 42.812 53.3639 42.812 51.3547 41.6565L34.7118 32.0844C32.7026 30.9288 32.7026 29.0553 34.7118 27.8997L51.3547 18.3276Z" fill="#333333"/>
<path d="M24.3822 33.7459C26.3914 32.5903 29.6489 32.5903 31.6581 33.7459L48.3009 43.318C50.3101 44.4736 50.3101 46.3471 48.3009 47.5027L31.6581 57.0748C29.6489 58.2303 26.3914 58.2303 24.3822 57.0747L7.7393 47.5027C5.73013 46.3471 5.73013 44.4736 7.73931 43.318L24.3822 33.7459Z" fill="#333333"/>
<path d="M82.3747 18.9274C83.4218 18.3252 84.8258 18.0098 86.2568 18.0098C87.6879 18.0098 89.0919 18.3252 90.139 18.9274L109.039 29.7979C110.09 30.402 110.5 31.1232 110.5 31.7407C110.5 32.3581 110.09 33.0794 109.039 33.6834L90.139 44.5539C89.0919 45.1562 87.6879 45.4716 86.2568 45.4716C84.8258 45.4716 83.4218 45.1562 82.3747 44.5539L63.4743 33.6834C62.4241 33.0794 62.0137 32.3581 62.0137 31.7407C62.0137 31.1232 62.4241 30.402 63.4743 29.7979L82.3747 18.9274ZM51.4923 1.41767C52.5394 0.815422 53.9434 0.5 55.3744 0.5C56.8055 0.5 58.2095 0.815424 59.2566 1.41767L78.157 12.2882C79.2072 12.8922 79.6176 13.6135 79.6176 14.2309C79.6176 14.8484 79.2072 15.5696 78.157 16.1737L59.2566 27.0442C58.2095 27.6464 56.8055 27.9618 55.3744 27.9618C53.9434 27.9618 52.5394 27.6464 51.4923 27.0442L32.5919 16.1737C31.5417 15.5696 31.1313 14.8484 31.1313 14.2309C31.1313 13.6135 31.5417 12.8922 32.5919 12.2882L51.4923 1.41767ZM20.861 18.9274C21.9081 18.3252 23.3121 18.0098 24.7432 18.0098C26.1742 18.0098 27.5782 18.3252 28.6253 18.9274L47.5257 29.7979C48.5759 30.402 48.9863 31.1232 48.9863 31.7407C48.9863 32.3581 48.5759 33.0794 47.5257 33.6834L28.6253 44.5539C27.5782 45.1562 26.1742 45.4716 24.7432 45.4716C23.3121 45.4716 21.9081 45.1562 20.861 44.5539L1.96057 33.6834C0.910376 33.0794 0.499999 32.3581 0.5 31.7407C0.500001 31.1232 0.910379 30.402 1.96058 29.7979L20.861 18.9274Z" fill="white" stroke="#333333"/>
<path d="M54.8007 37.0936L54.8008 37.0937L54.8074 37.0845C54.8602 37.0102 54.9713 36.9221 55.1628 36.8521C55.3501 36.7836 55.5815 36.7451 55.8231 36.7451C56.0646 36.7451 56.296 36.7836 56.4833 36.8521C56.6717 36.921 56.7823 37.0073 56.8361 37.0808L71.1286 58.2135L71.1285 58.2136L71.1352 58.2231C71.1564 58.2529 71.1616 58.27 71.1627 58.275C71.1623 58.2766 71.1613 58.2793 71.1594 58.2834C71.143 58.3179 71.0759 58.4036 70.9002 58.4905C70.5538 58.6617 69.9993 58.7283 69.4931 58.5542L56.0434 53.9292C55.4522 53.7259 54.7315 53.7259 54.1402 53.9292L40.6905 58.5542C40.1844 58.7283 39.6298 58.6617 39.2834 58.4905C39.1078 58.4036 39.0406 58.3179 39.0243 58.2834C39.0223 58.2793 39.0214 58.2766 39.0209 58.275C39.022 58.2703 39.0268 58.2543 39.0459 58.2267L54.8007 37.0936ZM39.0206 58.2735C39.0207 58.2735 39.0207 58.2739 39.0208 58.2744L39.0206 58.2735Z" fill="white" stroke="#333333"/>
<path d="M43.2201 12.121C42.1786 11.522 41.6141 10.9083 41.5267 10.28C41.4539 9.65165 41.88 9.05054 42.8049 8.47667C42.9943 8.35938 43.3111 8.17297 43.7554 7.91745C44.2069 7.65774 44.5383 7.47133 44.7495 7.35823C45.7328 6.83462 46.7779 6.59795 47.8849 6.64822C48.9993 6.6943 50.0662 7.01056 51.0859 7.597C51.7268 7.96562 52.1929 8.35938 52.4843 8.77827C52.7829 9.19297 52.8776 9.59929 52.7683 9.99723C52.6736 10.3952 52.3641 10.7491 51.8397 11.0591L51.8179 11.0717C51.7596 11.1052 51.6831 11.1199 51.5884 11.1157C51.5083 11.1115 51.4391 11.0926 51.3809 11.0591L49.906 10.2109C49.8113 10.1564 49.7567 10.104 49.7421 10.0538C49.7349 9.99933 49.7676 9.93021 49.8405 9.84643C50.1099 9.57415 50.2083 9.33329 50.1354 9.12385C50.0699 8.91022 49.8587 8.70077 49.5018 8.49552C48.6424 8.00123 47.7174 8.02217 46.7269 8.55835C46.523 8.66726 46.2171 8.83901 45.8092 9.07358C45.4014 9.30816 45.0955 9.48828 44.8916 9.61395C43.9593 10.1836 43.9229 10.7156 44.7823 11.2099C45.1392 11.4152 45.507 11.5387 45.8857 11.5806C46.2717 11.6183 46.6869 11.5597 47.1311 11.4047C47.2695 11.3586 47.3824 11.3398 47.4698 11.3481C47.5645 11.3523 47.6628 11.3838 47.7648 11.4424L49.2396 12.2906C49.3052 12.3283 49.3379 12.3723 49.3379 12.4226C49.3452 12.4771 49.3124 12.521 49.2396 12.5545C48.7007 12.8561 48.0816 13.0363 47.3824 13.0949C46.6978 13.1536 45.9913 13.0991 45.263 12.9315C44.542 12.7598 43.861 12.4896 43.2201 12.121Z" fill="#333333"/>
<path d="M48.1378 14.8238C48.065 14.7819 48.0249 14.7295 48.0177 14.6667C48.0249 14.6038 48.065 14.5515 48.1378 14.5096L55.2389 10.4254C55.319 10.3794 55.4101 10.3563 55.512 10.3563C55.6213 10.3605 55.7123 10.3835 55.7852 10.4254L58.8441 12.1848C59.7763 12.7209 60.2934 13.2655 60.3954 13.8184C60.5047 14.3756 60.1478 14.8908 59.3248 15.3641C58.5091 15.8333 57.6278 16.0343 56.681 15.9673C55.7415 15.8961 54.8019 15.5903 53.8624 15.05L52.5624 14.3022L50.1698 15.6783C50.0897 15.7244 49.995 15.7453 49.8858 15.7411C49.7838 15.7411 49.6928 15.7181 49.6127 15.672L48.1378 14.8238ZM55.3154 14.1514C55.6359 14.3358 55.9672 14.4342 56.3096 14.4468C56.6591 14.4551 56.9942 14.3672 57.3146 14.1829C57.6132 14.0111 57.7625 13.8247 57.7625 13.6236C57.7771 13.4226 57.6132 13.2236 57.2709 13.0267L55.9927 12.2916L54.0372 13.4163L55.3154 14.1514Z" fill="#333333"/>
<path d="M58.2736 20.779C57.2321 20.18 56.6677 19.5663 56.5803 18.938C56.5074 18.3096 56.9335 17.7085 57.8585 17.1347C58.0478 17.0174 58.3647 16.831 58.8089 16.5754C59.2605 16.3157 59.5919 16.1293 59.8031 16.0162C60.7863 15.4926 61.8314 15.2559 62.9385 15.3062C64.0528 15.3523 65.1198 15.6685 66.1394 16.255C66.7804 16.6236 67.2465 17.0174 67.5378 17.4363C67.8364 17.851 67.9311 18.2573 67.8219 18.6552C67.7272 19.0532 67.4176 19.4071 66.8933 19.7171L66.8714 19.7297C66.8131 19.7632 66.7367 19.7778 66.642 19.7736C66.5619 19.7695 66.4927 19.7506 66.4344 19.7171L64.9596 18.8688C64.8649 18.8144 64.8103 18.762 64.7957 18.7118C64.7884 18.6573 64.8212 18.5882 64.894 18.5044C65.1635 18.2321 65.2618 17.9913 65.189 17.7818C65.1234 17.5682 64.9122 17.3588 64.5554 17.1535C63.6959 16.6592 62.771 16.6802 61.7805 17.2163C61.5765 17.3252 61.2706 17.497 60.8628 17.7316C60.4549 17.9661 60.149 18.1463 59.9451 18.2719C59.0129 18.8416 58.9764 19.3736 59.8359 19.8679C60.1927 20.0732 60.5605 20.1967 60.9393 20.2386C61.3253 20.2763 61.7404 20.2177 62.1847 20.0627C62.3231 20.0166 62.4359 19.9978 62.5233 20.0061C62.618 20.0103 62.7164 20.0417 62.8183 20.1004L64.2932 20.9486C64.3587 20.9863 64.3915 21.0303 64.3915 21.0806C64.3988 21.135 64.366 21.179 64.2932 21.2125C63.7542 21.5141 63.1351 21.6943 62.4359 21.7529C61.7513 21.8115 61.0449 21.7571 60.3165 21.5895C59.5955 21.4178 58.9145 21.1476 58.2736 20.779Z" fill="#333333"/>
<path d="M75.2002 29.139C74.2159 28.5708 73.6825 27.9887 73.5999 27.3926C73.5311 26.7966 73.9337 26.2264 74.8079 25.6821C74.9868 25.5708 75.2862 25.394 75.7061 25.1516C76.1328 24.9053 76.446 24.7284 76.6456 24.6212C77.5747 24.1245 78.5624 23.9 79.6086 23.9477C80.6617 23.9914 81.67 24.2914 82.6336 24.8477C83.2393 25.1973 83.6798 25.5708 83.9551 25.9682C84.2373 26.3615 84.3268 26.747 84.2235 27.1244C84.1341 27.5019 83.8415 27.8377 83.346 28.1317L83.3253 28.1436C83.2703 28.1754 83.198 28.1893 83.1085 28.1853C83.0328 28.1814 82.9674 28.1635 82.9124 28.1317L81.5186 27.3271C81.4291 27.2754 81.3775 27.2258 81.3637 27.1781C81.3569 27.1264 81.3878 27.0609 81.4567 26.9814C81.7113 26.7231 81.8042 26.4946 81.7354 26.296C81.6735 26.0933 81.4739 25.8947 81.1366 25.7C80.3244 25.2311 79.4503 25.251 78.5143 25.7596C78.3215 25.8629 78.0325 26.0258 77.647 26.2483C77.2616 26.4708 76.9725 26.6417 76.7798 26.7609C75.8988 27.3013 75.8644 27.8059 76.6765 28.2748C77.0138 28.4695 77.3614 28.5867 77.7193 28.6264C78.0841 28.6622 78.4764 28.6065 78.8962 28.4595C79.027 28.4158 79.1337 28.3979 79.2163 28.4059C79.3058 28.4098 79.3987 28.4396 79.4951 28.4953L80.8888 29.2999C80.9508 29.3357 80.9817 29.3774 80.9817 29.4251C80.9886 29.4767 80.9576 29.5184 80.8888 29.5502C80.3795 29.8363 79.7945 30.0072 79.1337 30.0628C78.4867 30.1184 77.8191 30.0668 77.1308 29.9078C76.4494 29.7449 75.8059 29.4886 75.2002 29.139Z" fill="#333333"/>
<path d="M79.8476 31.7027C79.7788 31.663 79.7409 31.6133 79.734 31.5537C79.7409 31.4941 79.7788 31.4445 79.8476 31.4047L86.5583 27.5306C86.6341 27.4869 86.7201 27.4651 86.8165 27.4651C86.9197 27.469 87.0057 27.4909 87.0746 27.5306L89.9653 29.1995C90.8463 29.7081 91.335 30.2246 91.4314 30.7491C91.5346 31.2776 91.1974 31.7663 90.4196 32.2153C89.6487 32.6603 88.8159 32.8511 87.9211 32.7875C87.0333 32.7199 86.1454 32.4299 85.2575 31.9173L84.0289 31.208L81.7679 32.5133C81.6922 32.557 81.6027 32.5769 81.4995 32.5729C81.4031 32.5729 81.3171 32.5511 81.2414 32.5074L79.8476 31.7027ZM86.6306 31.065C86.9335 31.2398 87.2466 31.3332 87.5701 31.3451C87.9005 31.3531 88.2171 31.2696 88.5199 31.0948C88.8021 30.9319 88.9432 30.7551 88.9432 30.5643C88.957 30.3736 88.8021 30.1849 88.4787 29.9981L87.2707 29.3008L85.4227 30.3677L86.6306 31.065Z" fill="#333333"/>
<path d="M86.8245 35.7305C86.7557 35.6908 86.7178 35.6411 86.711 35.5815C86.7178 35.5219 86.7557 35.4722 86.8245 35.4325L93.5353 31.5584C93.611 31.5147 93.697 31.4928 93.7934 31.4928C93.8966 31.4968 93.9826 31.5187 94.0515 31.5584L95.1665 32.2021C95.3317 32.2974 95.3764 32.4107 95.3007 32.5418L93.8656 35.4683L98.9348 34.6398C99.162 34.5961 99.3581 34.6219 99.5233 34.7173L100.628 35.355C100.704 35.3987 100.742 35.4484 100.742 35.504C100.748 35.5636 100.714 35.6153 100.638 35.659L93.9276 39.5331C93.8519 39.5768 93.7624 39.5967 93.6592 39.5927C93.5628 39.5927 93.4768 39.5708 93.401 39.5271L92.1725 38.8179C92.0968 38.7742 92.0555 38.7225 92.0486 38.6629C92.0486 38.6073 92.0864 38.5576 92.1621 38.5139L96.0337 36.2788L92.7196 36.857C92.4719 36.8967 92.2723 36.8729 92.1208 36.7855L91.584 36.4755C91.4945 36.4239 91.4429 36.3702 91.4291 36.3146C91.4154 36.259 91.4257 36.1974 91.4601 36.1298L92.4512 34.2107L88.5796 36.4457C88.5108 36.4855 88.4248 36.5073 88.3215 36.5113C88.2252 36.5113 88.1391 36.4894 88.0634 36.4457L86.8245 35.7305Z" fill="#333333"/>
<path d="M13.8704 29.5125C12.8969 28.9526 12.3693 28.3789 12.2876 27.7916C12.2195 27.2043 12.6178 26.6425 13.4823 26.106C13.6593 25.9964 13.9555 25.8222 14.3708 25.5833C14.7928 25.3406 15.1026 25.1663 15.3 25.0606C16.219 24.5712 17.196 24.35 18.2307 24.397C19.2723 24.44 20.2696 24.7356 21.2227 25.2838C21.8218 25.6284 22.2575 25.9964 22.5298 26.388C22.8089 26.7756 22.8974 27.1554 22.7953 27.5273C22.7068 27.8993 22.4175 28.2302 21.9273 28.5199L21.9069 28.5317C21.8524 28.563 21.7809 28.5767 21.6924 28.5728C21.6176 28.5688 21.5529 28.5512 21.4984 28.5199L20.1199 27.727C20.0314 27.6761 19.9803 27.6272 19.9667 27.5802C19.9599 27.5293 19.9905 27.4647 20.0586 27.3864C20.3105 27.1319 20.4024 26.9067 20.3343 26.711C20.273 26.5113 20.0756 26.3155 19.742 26.1237C18.9387 25.6616 18.0741 25.6812 17.1483 26.1824C16.9577 26.2842 16.6718 26.4447 16.2905 26.664C15.9093 26.8833 15.6234 27.0516 15.4328 27.1691C14.5614 27.7016 14.5273 28.1988 15.3306 28.6609C15.6642 28.8527 16.008 28.9682 16.362 29.0074C16.7228 29.0426 17.1109 28.9878 17.5261 28.8429C17.6555 28.7999 17.761 28.7822 17.8427 28.7901C17.9312 28.794 18.0231 28.8233 18.1184 28.8782L19.497 29.671C19.5582 29.7063 19.5889 29.7474 19.5889 29.7944C19.5957 29.8453 19.565 29.8864 19.497 29.9177C18.9932 30.1996 18.4145 30.368 17.761 30.4228C17.1211 30.4776 16.4607 30.4267 15.78 30.2701C15.106 30.1096 14.4695 29.857 13.8704 29.5125Z" fill="#333333"/>
<path d="M18.4671 32.0388C18.399 31.9996 18.3616 31.9507 18.3548 31.892C18.3616 31.8332 18.399 31.7843 18.4671 31.7451L25.1046 27.9276C25.1795 27.8845 25.2646 27.863 25.3599 27.863C25.462 27.8669 25.5471 27.8884 25.6152 27.9276L28.4744 29.5721C29.3458 30.0732 29.8292 30.5822 29.9245 31.0991C30.0266 31.6198 29.693 32.1014 28.9237 32.5439C28.1613 32.9824 27.3375 33.1703 26.4525 33.1077C25.5744 33.0411 24.6962 32.7553 23.818 32.2502L22.6028 31.5513L20.3665 32.8375C20.2916 32.8806 20.2031 32.9002 20.101 32.8963C20.0056 32.8963 19.9206 32.8747 19.8457 32.8317L18.4671 32.0388ZM25.1761 31.4104C25.4756 31.5826 25.7854 31.6746 26.1054 31.6864C26.4321 31.6942 26.7453 31.612 27.0448 31.4397C27.3239 31.2792 27.4635 31.105 27.4635 30.917C27.4771 30.7291 27.3239 30.5431 27.004 30.3591L25.8092 29.6719L23.9813 30.7232L25.1761 31.4104Z" fill="#333333"/>
<path d="M24.2155 35.3449C24.161 35.3136 24.1304 35.2725 24.1236 35.2216C24.1304 35.1707 24.161 35.1296 24.2155 35.0983C24.2563 35.0748 24.2904 35.0591 24.3176 35.0513L33.2731 32.6609C33.3753 32.6257 33.4876 32.612 33.6101 32.6198C33.7327 32.6276 33.8484 32.6629 33.9573 32.7255L35.4686 33.5947C35.5776 33.6574 35.6388 33.724 35.6524 33.7944C35.6661 33.8649 35.6422 33.9295 35.581 33.9883L31.4146 39.1331L31.3432 39.1977C31.2887 39.229 31.2138 39.2447 31.1185 39.2447C31.0368 39.2447 30.9653 39.2271 30.9041 39.1918L29.648 38.4695C29.4847 38.3755 29.4472 38.2717 29.5357 38.1582L30.179 37.3301L27.4526 35.7619L26.0229 36.1378C25.8255 36.1887 25.6417 36.1652 25.4715 36.0673L24.2155 35.3449ZM31.241 36.2494L32.9872 34.1527L29.3417 35.157L31.241 36.2494Z" fill="#333333"/>
</svg>
