<svg width="114" height="80" viewBox="0 0 114 80" fill="none" xmlns="http://www.w3.org/2000/svg">
<g opacity="0.3">
<path fill-rule="evenodd" clip-rule="evenodd" d="M44.2111 30.4864C45.3006 29.8558 47.0672 29.8558 48.1568 30.4864L90.934 55.2451C92.0236 55.8758 92.0236 56.8982 90.934 57.5289L87.7824 59.3529L41.0595 32.3105L44.2111 30.4864ZM47.1636 32.8774C46.7057 33.1424 45.9635 33.1424 45.5056 32.8774C45.0478 32.6125 45.0478 32.1829 45.5056 31.9179C45.9635 31.6529 46.7057 31.6529 47.1636 31.9179C47.6214 32.1829 47.6214 32.6125 47.1636 32.8774ZM49.8765 34.4479C49.4187 34.7128 48.6764 34.7128 48.2186 34.4479C47.7608 34.1829 47.7608 33.7533 48.2186 33.4883C48.6764 33.2233 49.4187 33.2233 49.8765 33.4883C50.3343 33.7533 50.3343 34.1829 49.8765 34.4479ZM50.9315 36.018C51.3893 36.283 52.1316 36.283 52.5894 36.018C53.0473 35.753 53.0473 35.3234 52.5894 35.0585C52.1316 34.7935 51.3893 34.7935 50.9315 35.0585C50.4737 35.3234 50.4737 35.753 50.9315 36.018Z" fill="#333333"/>
<path d="M86.9534 59.8328L40.2305 32.7903L13.1145 48.4846C12.025 49.1152 12.025 50.1376 13.1145 50.7683L55.8918 75.527C56.9813 76.1576 58.7479 76.1576 59.8375 75.527L86.9534 59.8328Z" fill="#333333"/>
</g>
<path fill-rule="evenodd" clip-rule="evenodd" d="M42.9604 15.5555C44.2243 14.8239 46.2736 14.8239 47.5376 15.5555L97.1605 44.2765C98.4245 45.008 98.4245 46.1941 97.1605 46.9256L93.5046 49.0416L39.3045 17.6715L42.9604 15.5555ZM46.3854 18.3291C45.8543 18.6365 44.9932 18.6365 44.4621 18.3291C43.9311 18.0218 43.9311 17.5234 44.4621 17.216C44.9932 16.9086 45.8543 16.9086 46.3854 17.216C46.9165 17.5234 46.9165 18.0218 46.3854 18.3291ZM49.5325 20.1509C49.0014 20.4583 48.1403 20.4583 47.6092 20.1509C47.0782 19.8436 47.0782 19.3452 47.6092 19.0378C48.1403 18.7304 49.0014 18.7304 49.5325 19.0378C50.0636 19.3452 50.0636 19.8436 49.5325 20.1509ZM50.7563 21.9724C51.2874 22.2798 52.1485 22.2798 52.6796 21.9724C53.2107 21.665 53.2107 21.1666 52.6796 20.8592C52.1485 20.5519 51.2874 20.5519 50.7563 20.8592C50.2253 21.1666 50.2253 21.665 50.7563 21.9724Z" fill="#333333"/>
<path d="M92.5429 49.5982L38.3428 18.228L6.88741 36.4339C5.62347 37.1654 5.62347 38.3515 6.88741 39.0831L56.5104 67.804C57.7743 68.5356 59.8236 68.5356 61.0875 67.804L92.5429 49.5982Z" fill="#333333"/>
<mask id="path-3-inside-1_1032_1413" fill="white">
<path fill-rule="evenodd" clip-rule="evenodd" d="M47.0809 1.45238C45.695 0.650254 43.448 0.650254 42.0622 1.45238L38.0535 3.77253L97.4826 38.1691L101.491 35.849C102.877 35.0468 102.877 33.7463 101.491 32.9442L47.0809 1.45238ZM96.4285 38.7793L36.9994 4.38277L2.50938 24.345C1.12349 25.1472 1.12349 26.4477 2.50938 27.2498L56.9197 58.7416C58.3056 59.5437 60.5526 59.5437 61.9385 58.7416L96.4285 38.7793Z"/>
</mask>
<path fill-rule="evenodd" clip-rule="evenodd" d="M47.0809 1.45238C45.695 0.650254 43.448 0.650254 42.0622 1.45238L38.0535 3.77253L97.4826 38.1691L101.491 35.849C102.877 35.0468 102.877 33.7463 101.491 32.9442L47.0809 1.45238ZM96.4285 38.7793L36.9994 4.38277L2.50938 24.345C1.12349 25.1472 1.12349 26.4477 2.50938 27.2498L56.9197 58.7416C58.3056 59.5437 60.5526 59.5437 61.9385 58.7416L96.4285 38.7793Z" fill="white"/>
<path d="M42.0622 1.45238L41.1967 0.951453L41.1967 0.951453L42.0622 1.45238ZM47.0809 1.45238L46.2154 1.95331L47.0809 1.45238ZM38.0535 3.77253L37.188 3.2716L36.3225 3.77253L37.188 4.27346L38.0535 3.77253ZM97.4826 38.1691L96.6171 38.67L97.4826 39.171L98.3481 38.67L97.4826 38.1691ZM101.491 32.9442L102.357 32.4433L101.491 32.9442ZM36.9994 4.38277L37.8649 3.88184L36.9994 3.38091L36.1339 3.88184L36.9994 4.38277ZM96.4285 38.7793L97.294 39.2803L98.1595 38.7793L97.294 38.2784L96.4285 38.7793ZM2.50938 24.345L3.37487 24.846L2.50938 24.345ZM2.50938 27.2498L1.64389 27.7507L2.50938 27.2498ZM56.9197 58.7416L57.7852 58.2407L56.9197 58.7416ZM42.9276 1.95331C43.8355 1.42784 45.3075 1.42784 46.2154 1.95331L47.9464 0.951452C46.0825 -0.127333 43.0606 -0.127332 41.1967 0.951453L42.9276 1.95331ZM38.919 4.27346L42.9276 1.95331L41.1967 0.951453L37.188 3.2716L38.919 4.27346ZM98.3481 37.6682L38.919 3.2716L37.188 4.27346L96.6171 38.67L98.3481 37.6682ZM100.626 35.348L96.6171 37.6682L98.3481 38.67L102.357 36.3499L100.626 35.348ZM100.626 33.4451C101.534 33.9706 101.534 34.8226 100.626 35.348L102.357 36.3499C104.221 35.2711 104.221 33.5221 102.357 32.4433L100.626 33.4451ZM46.2154 1.95331L100.626 33.4451L102.357 32.4433L47.9464 0.951452L46.2154 1.95331ZM36.1339 4.8837L95.563 39.2803L97.294 38.2784L37.8649 3.88184L36.1339 4.8837ZM3.37487 24.846L37.8649 4.8837L36.1339 3.88184L1.64389 23.8441L3.37487 24.846ZM3.37487 26.7489C2.46698 26.2234 2.46697 25.3714 3.37487 24.846L1.64389 23.8441C-0.219991 24.9229 -0.219989 26.6719 1.64389 27.7507L3.37487 26.7489ZM57.7852 58.2407L3.37487 26.7489L1.64389 27.7507L56.0542 59.2425L57.7852 58.2407ZM61.073 58.2407C60.1651 58.7662 58.6931 58.7662 57.7852 58.2407L56.0542 59.2425C57.9181 60.3213 60.9401 60.3213 62.804 59.2425L61.073 58.2407ZM95.563 38.2784L61.073 58.2407L62.804 59.2425L97.294 39.2803L95.563 38.2784Z" fill="#333333" mask="url(#path-3-inside-1_1032_1413)"/>
<path fill-rule="evenodd" clip-rule="evenodd" d="M46.4343 4.88217C45.7429 5.28236 44.6219 5.28236 43.9304 4.88217C43.239 4.48198 43.239 3.83314 43.9304 3.43295C44.6219 3.03277 45.7429 3.03277 46.4343 3.43295C47.1258 3.83314 47.1258 4.48198 46.4343 4.88217ZM50.5331 7.25399C49.8416 7.65418 48.7206 7.65418 48.0292 7.25399C47.3377 6.8538 47.3377 6.20497 48.0292 5.80478C48.7206 5.40459 49.8416 5.40459 50.5331 5.80478C51.2245 6.20497 51.2245 6.8538 50.5331 7.25399ZM52.1269 9.62582C52.8184 10.026 53.9394 10.026 54.6308 9.62582C55.3222 9.22563 55.3222 8.5768 54.6308 8.17661C53.9394 7.77642 52.8184 7.77642 52.1269 8.17661C51.4355 8.5768 51.4355 9.22563 52.1269 9.62582Z" fill="#333333"/>
<path d="M18.4318 19.221C18.3571 19.1778 18.315 19.121 18.3057 19.0507C18.315 18.9803 18.3571 18.9235 18.4318 18.8803C18.4879 18.8478 18.5346 18.8262 18.572 18.8154L30.865 15.5134C31.0052 15.4648 31.1593 15.4458 31.3275 15.4567C31.4957 15.4675 31.6546 15.5162 31.8041 15.6027L33.8786 16.8034C34.0282 16.8899 34.1123 16.9819 34.131 17.0792C34.1496 17.1766 34.1169 17.2658 34.0328 17.347L28.3139 24.4538L28.2158 24.5431C28.141 24.5863 28.0382 24.608 27.9074 24.608C27.7952 24.608 27.6971 24.5836 27.613 24.5349L25.8889 23.5371C25.6646 23.4073 25.6133 23.2639 25.7347 23.1071L26.6178 21.9632L22.8752 19.797L20.9129 20.3163C20.6419 20.3866 20.3896 20.3541 20.1559 20.2189L18.4318 19.221ZM28.0756 20.4704L30.4725 17.5741L25.4684 18.9614L28.0756 20.4704Z" fill="#333333"/>
<path d="M29.3766 25.5557C29.2832 25.5016 29.2318 25.434 29.2225 25.3529C29.2318 25.2717 29.2832 25.2041 29.3767 25.1501L38.4877 19.8767C38.5905 19.8172 38.7073 19.7875 38.8382 19.7875C38.9783 19.7929 39.0952 19.8226 39.1886 19.8767L42.833 21.986C44.2067 22.7811 44.9449 23.587 45.0477 24.4037C45.1505 25.2204 44.5992 25.9992 43.3937 26.7402C43.1321 26.9024 42.777 27.1134 42.3284 27.373C41.8799 27.6326 41.5201 27.8354 41.2491 27.9814C39.9035 28.7062 38.5485 29.0415 37.1842 28.9874C35.8385 28.9333 34.4742 28.5061 33.0912 27.7056L29.3766 25.5557ZM35.0395 26.4968C35.6563 26.8538 36.2544 27.0322 36.8337 27.0322C37.4224 27.0268 38.0485 26.8429 38.712 26.4806C39.0017 26.3345 39.3615 26.1371 39.7913 25.8883C40.2212 25.6395 40.5576 25.434 40.8006 25.2717C41.408 24.8986 41.7023 24.5335 41.6836 24.1765C41.6743 23.825 41.3612 23.4707 40.7445 23.1137L39.3428 22.3024L33.5678 25.6449L35.0395 26.4968Z" fill="#333333"/>
<path d="M42.5782 33.3588C41.6905 32.845 41.0597 32.3285 40.6859 31.8092C40.3121 31.29 40.1719 30.8141 40.2654 30.3814C40.3775 29.9487 40.6766 29.5809 41.1625 29.278C41.2372 29.2348 41.3307 29.2131 41.4428 29.2131C41.5737 29.2131 41.6811 29.2375 41.7652 29.2862L43.5314 30.3084C43.6435 30.3733 43.7089 30.4382 43.7276 30.5031C43.765 30.568 43.779 30.6464 43.7697 30.7384C43.6482 30.9493 43.6435 31.1792 43.7556 31.4279C43.8678 31.6767 44.1481 31.9309 44.5967 32.1906C45.1293 32.4988 45.6199 32.6854 46.0685 32.7503C46.517 32.8152 46.8861 32.7639 47.1758 32.5962C47.3814 32.4772 47.4748 32.3366 47.4562 32.1743C47.4468 32.0175 47.3393 31.8201 47.1338 31.5821C46.9282 31.3441 46.5871 31.0115 46.1105 30.5842C45.2228 29.8 44.7228 29.1158 44.6107 28.5317C44.5172 27.9475 44.891 27.4121 45.7321 26.9253C46.3021 26.5954 46.9702 26.3926 47.7365 26.3168C48.5028 26.2411 49.3064 26.3006 50.1474 26.4953C50.9885 26.69 51.8014 27.0146 52.5864 27.4689C53.3994 27.9394 53.9647 28.4289 54.2825 28.9373C54.6002 29.4457 54.6983 29.9135 54.5768 30.3408C54.474 30.7681 54.2264 31.1061 53.8339 31.3549C53.7498 31.4036 53.6517 31.4279 53.5396 31.4279C53.4274 31.4279 53.3293 31.4036 53.2452 31.3549L51.3949 30.284C51.2828 30.2191 51.2081 30.1542 51.1707 30.0893C51.1426 30.0298 51.1426 29.9595 51.1707 29.8784C51.3295 29.7215 51.3576 29.5268 51.2548 29.2943C51.1613 29.0671 50.9324 28.8481 50.5679 28.6371C50.1474 28.3937 49.7503 28.2504 49.3765 28.2071C49.0027 28.1639 48.671 28.2261 48.3813 28.3937C48.185 28.5073 48.0822 28.6371 48.0729 28.7832C48.0729 28.9346 48.157 29.1239 48.3252 29.3511C48.5121 29.5782 48.8158 29.8784 49.2363 30.2516C49.9465 30.8465 50.4371 31.363 50.7081 31.8011C50.9978 32.2392 51.0726 32.6395 50.9324 33.0018C50.8016 33.3588 50.4511 33.7022 49.8811 34.0322C49.255 34.3945 48.5261 34.6055 47.6944 34.665C46.8815 34.7245 46.0264 34.6406 45.1293 34.4135C44.2509 34.1863 43.4005 33.8348 42.5782 33.3588Z" fill="#333333"/>
<path d="M64.3142 47.7123C64.2198 47.6577 64.1675 47.5896 64.1574 47.5081C64.1568 47.432 64.2078 47.3642 64.3106 47.3047L65.2778 46.7449C64.6634 46.2919 64.2416 45.8422 64.0123 45.3958C63.7925 44.9549 63.7467 44.5498 63.875 44.1806C64.022 43.8114 64.3057 43.4942 64.7261 43.2291C64.8008 43.1858 64.8945 43.1643 65.0072 43.1646C65.1387 43.165 65.247 43.1898 65.3319 43.239L67.1159 44.2715C67.2292 44.3371 67.2955 44.4025 67.3148 44.4678C67.353 44.5331 67.3677 44.612 67.3591 44.7044C67.2389 44.916 67.2315 45.1443 67.3369 45.3892C67.4518 45.6396 67.7405 45.8986 68.203 46.1663C68.741 46.4777 69.2357 46.6667 69.6871 46.7332C70.1385 46.7998 70.509 46.7492 70.7987 46.5816C71.0043 46.4626 71.097 46.3215 71.0768 46.1584C71.066 46.0007 70.9563 45.802 70.7476 45.5622C70.5389 45.3224 70.1932 44.9871 69.7105 44.5563C68.7926 43.7654 68.2842 43.0763 68.1852 42.489C68.0861 41.9016 68.4571 41.3646 69.2982 40.8778C70.0457 40.4451 70.9549 40.2358 72.0257 40.2498C73.1058 40.2583 74.1786 40.5006 75.244 40.9766L76.2252 40.4087C76.3279 40.3492 76.4451 40.3197 76.5766 40.3201C76.7175 40.3259 76.8352 40.3562 76.9295 40.4108L78.1047 41.091C78.2085 41.151 78.2608 41.2191 78.2614 41.2952C78.2621 41.3714 78.211 41.4391 78.1083 41.4986L77.099 42.0828C77.6192 42.5028 77.9563 42.9251 78.1102 43.3495C78.283 43.774 78.3051 44.16 78.1766 44.5075C78.0482 44.855 77.8158 45.137 77.4796 45.3535C77.4049 45.3967 77.3064 45.4209 77.1844 45.426C77.0717 45.4257 76.9729 45.4009 76.8879 45.3518L75.019 44.27C74.9057 44.2045 74.83 44.139 74.7919 44.0737C74.7632 44.0138 74.7626 43.9432 74.79 43.8617C74.9483 43.7045 74.9748 43.5089 74.8695 43.2749C74.7736 43.0463 74.5415 42.8255 74.1734 42.6124C73.7487 42.3666 73.3483 42.2213 72.9722 42.1768C72.5961 42.1322 72.2633 42.1937 71.9736 42.3614C71.7774 42.475 71.6752 42.6051 71.6671 42.7519C71.6684 42.9041 71.7546 43.0946 71.9256 43.3234C72.1154 43.5522 72.4233 43.8548 72.8492 44.2311C73.5681 44.8311 74.0657 45.3517 74.3419 45.7928C74.6274 46.2285 74.706 46.6255 74.5777 46.9839C74.4493 47.3423 74.0954 47.6892 73.516 48.0245C72.6937 48.5004 71.7188 48.715 70.5914 48.6683C69.464 48.6215 68.3252 48.341 67.1749 47.8267L66.1937 48.3946C66.0909 48.4541 65.9738 48.4836 65.8423 48.4832C65.7108 48.4829 65.5932 48.4526 65.4893 48.3925L64.3142 47.7123Z" fill="#333333"/>
<path d="M64.8075 35.045C64.804 34.6733 64.2804 34.3702 63.638 34.3681C62.9957 34.3661 62.4779 34.6658 62.4815 35.0375L62.5121 38.2179L56.1791 34.5525C55.7243 34.2893 54.9879 34.2887 54.5343 34.5513C54.0807 34.8138 54.0817 35.24 54.5365 35.5032L60.7813 39.1176L55.4617 39.1005C54.8194 39.0984 54.3016 39.3981 54.3051 39.7699C54.3087 40.1416 54.8323 40.4447 55.4747 40.4468L63.6968 40.4733C64.3391 40.4754 64.8569 40.1756 64.8534 39.8039L64.8075 35.045Z" fill="#333333"/>
</svg>
